<svg xmlns="http://www.w3.org/2000/svg" viewBox="0 0 90 90"><defs><style>.cls-1{fill:#e9573f;}.cls-2{fill:#ec5947;}.cls-3{fill:#e0543c;}.cls-4{fill:#d44f3a;}.cls-5{fill:#fc6e51;}.cls-6{fill:#404041;}</style></defs><title>lobster</title><g id="lobster"><path class="cls-1" d="M32.7,39.62a2.1,2.1,0,0,1,2.09,2.1h0a2.1,2.1,0,0,1-2.09,2.1H26.15a2.1,2.1,0,0,1-2.09-2.1h0a2.1,2.1,0,0,1,2.09-2.1Z"/><path class="cls-2" d="M57.3,39.62a2.1,2.1,0,0,0-2.1,2.1h0a2.1,2.1,0,0,0,2.1,2.1h6.55a2.1,2.1,0,0,0,2.1-2.1h0a2.1,2.1,0,0,0-2.1-2.1Z"/><path class="cls-1" d="M67.3,19.41C64.72,14.2,65.3,8.64,68.6,7l9.34,18.88C74.64,27.51,69.87,24.62,67.3,19.41Z"/><path class="cls-1" d="M48.11,27.2a.65.65,0,0,1-.65-.65C47.46,14.67,53.75,5,61.47,5a.65.65,0,0,1,0,1.3c-7,0-12.72,9.09-12.72,20.25A.65.65,0,0,1,48.11,27.2Z"/><path class="cls-1" d="M41.36,27.2a.65.65,0,0,1-.65-.65C40.72,15.38,35,6.3,28,6.3A.65.65,0,0,1,28,5c7.72,0,14,9.67,14,21.55A.64.64,0,0,1,41.36,27.2Z"/><path class="cls-3" d="M57.14,54.62a13.1,13.1,0,0,1-9.3-3.78,1.81,1.81,0,0,1,0-2.59,1.87,1.87,0,0,1,2.62,0,9.41,9.41,0,0,0,6.9,2.7,10.4,10.4,0,0,0,7.12-3,1.86,1.86,0,0,1,2.62,0,1.82,1.82,0,0,1,0,2.59,14.12,14.12,0,0,1-9.66,4.12Z"/><path class="cls-3" d="M56.75,63.08a13.16,13.16,0,0,1-9.31-3.77,1.82,1.82,0,0,1,0-2.59,1.86,1.86,0,0,1,2.62,0,10,10,0,0,0,14-.34,1.87,1.87,0,0,1,2.62,0,1.82,1.82,0,0,1,0,2.59A14.16,14.16,0,0,1,56.75,63.08Z"/><path class="cls-3" d="M32.44,54.62h-.29a14.11,14.11,0,0,1-9.66-4.12,1.81,1.81,0,0,1,0-2.59,1.86,1.86,0,0,1,2.62,0,10.4,10.4,0,0,0,7.12,3,9.37,9.37,0,0,0,6.9-2.7,1.87,1.87,0,0,1,2.62,0,1.82,1.82,0,0,1,0,2.59A13.09,13.09,0,0,1,32.44,54.62Z"/><path class="cls-3" d="M32.84,63.08A14.14,14.14,0,0,1,22.89,59a1.81,1.81,0,0,1,0-2.59,1.86,1.86,0,0,1,2.61,0,10,10,0,0,0,14,.34,1.86,1.86,0,0,1,2.61,0,1.81,1.81,0,0,1,0,2.59A13.15,13.15,0,0,1,32.84,63.08Z"/><path class="cls-4" d="M47.79,81.8a3,3,0,0,1-3,3h0a3,3,0,0,1-3-3L38,41.67c0-1.66,5.14-3,6.79-3h0c1.65,0,6.79,1.34,6.79,3Z"/><path class="cls-5" d="M44.79,47.11a7.66,7.66,0,0,1,7.22,5c3.23-3,5.34-7.94,5.34-13.54,0-9.15-5.63-20.14-12.57-20.14s-12.57,11-12.57,20.14c0,5.6,2.11,10.55,5.34,13.54A7.67,7.67,0,0,1,44.79,47.11Z"/><path class="cls-2" d="M42.18,76c-1.51.88-5,4.61-4.17,6.38,1.68,3.56,11.87,3.56,13.56,0,.83-1.77-2.66-5.5-4.18-6.38A6.85,6.85,0,0,0,42.18,76Z"/><path class="cls-5" d="M44.79,57.65a7.7,7.7,0,0,1,6.05,2.93,7.36,7.36,0,1,0-12.1,0A7.71,7.71,0,0,1,44.79,57.65Z"/><path class="cls-5" d="M44.79,66.28a6.29,6.29,0,0,1,4.94,2.39,6,6,0,1,0-9.88,0A6.28,6.28,0,0,1,44.79,66.28Z"/><path class="cls-5" d="M44.79,73.75a5.37,5.37,0,0,1,4.22,2,5.13,5.13,0,1,0-8.43,0A5.38,5.38,0,0,1,44.79,73.75Z"/><path class="cls-1" d="M22.7,19.41C25.28,14.2,24.7,8.64,21.4,7L12.05,25.87C15.36,27.51,20.12,24.62,22.7,19.41Z"/><path class="cls-5" d="M82.5,20.48c0,7.95-4.08,14.39-9.11,14.39V6.09C78.42,6.09,82.5,12.53,82.5,20.48Z"/><path class="cls-5" d="M63,36.86a4.21,4.21,0,0,0,0,5.94h0a4.18,4.18,0,0,0,5.93,0l9.26-9.3a4.21,4.21,0,0,0,0-5.95h0a4.17,4.17,0,0,0-5.92,0Z"/><path class="cls-6" d="M57.76,19.13a2.15,2.15,0,0,0-.6-.41v0a2.12,2.12,0,0,0-2.82,2.91h0s.07.09.09.13L52,24.2l.71.71,2.42-2.43a2.12,2.12,0,0,0,2.62-.28A2.17,2.17,0,0,0,57.76,19.13Z"/><path class="cls-5" d="M7.5,20.48c0,7.95,4.08,14.39,9.11,14.39V6.09C11.58,6.09,7.5,12.53,7.5,20.48Z"/><path class="cls-5" d="M27,36.86a4.21,4.21,0,0,1,0,5.94h0a4.17,4.17,0,0,1-5.92,0l-9.27-9.3a4.22,4.22,0,0,1,0-5.95h0a4.17,4.17,0,0,1,5.92,0Z"/><path class="cls-6" d="M38,24.2l-2.42-2.43a2.14,2.14,0,0,0-3.33-2.63,2.18,2.18,0,0,0,0,3.06,2.12,2.12,0,0,0,2.62.28l2.42,2.43Z"/></g></svg>