<?xml version="1.0" ?><!DOCTYPE svg  PUBLIC '-//W3C//DTD SVG 1.1//EN'  'http://www.w3.org/Graphics/SVG/1.1/DTD/svg11.dtd'><svg enable-background="new 0 0 32 32" height="32px" version="1.1" viewBox="0 0 32 32" width="32px" xml:space="preserve" xmlns="http://www.w3.org/2000/svg" xmlns:xlink="http://www.w3.org/1999/xlink"><g id="play"/><g id="stop"/><g id="pause"/><g id="replay"/><g id="next"/><g id="Layer_8"/><g id="search"/><g id="list"/><g id="love"/><g id="menu"/><g id="add"/><g id="headset"/><g id="random"/><g id="music"><g><path d="M9,22.347c0,0.55-0.443,1.1-0.98,1.221    l-3.042,0.69C4.44,24.379,4,24.929,4,25.479V28c0,0.55,0.433,0.877,0.962,0.728l6.069-1.716C11.561,26.862,12,26.289,12,25.739    V11.913c0-0.55,0.437-1.077,0.979-1.171L24,8.823c0.542-0.094,1,0.279,1,0.829v12.695c0,0.55-0.457,1.1-0.994,1.221l-3.035,0.69    C20.434,24.379,20,24.929,20,25.479V28c0,0.55,0.418,0.877,0.947,0.728l6.077-1.716C27.554,26.862,28,26.289,28,25.739V4    c0-0.55-0.465-0.921-1.006-0.824L9.99,6.215C9.449,6.312,9,6.841,9,7.391V22.347z" fill="none" stroke="#231F20" stroke-miterlimit="10" stroke-width="2"/></g></g><g id="setting"/><g id="Layer_17"/><g id="Layer_18"/><g id="Layer_19"/><g id="Layer_20"/><g id="Layer_21"/><g id="Layer_22"/><g id="Layer_23"/><g id="Layer_24"/><g id="Layer_25"/><g id="Layer_26"/></svg>