<?xml version="1.0" ?><svg height="18px" version="1.1" viewBox="0 0 18 18" width="18px" xmlns="http://www.w3.org/2000/svg" xmlns:sketch="http://www.bohemiancoding.com/sketch/ns" xmlns:xlink="http://www.w3.org/1999/xlink"><title/><desc/><defs/><g fill="none" fill-rule="evenodd" id="Page-1" stroke="none" stroke-width="1"><g fill="#000000" id="Core" transform="translate(-339.000000, -171.000000)"><g id="drive-pdf" transform="translate(339.000000, 171.000000)"><path d="M8.3,5.6 L8.3,5.6 L8.3,5.6 C8.4,5.2 8.5,5 8.5,4.7 L8.5,4.5 C8.6,4 8.6,3.6 8.5,3.5 C8.5,3.5 8.5,3.5 8.5,3.4 L8.4,3.3 L8.4,3.3 C8.4,3.3 8.4,3.4 8.3,3.4 C8.1,4 8.1,4.7 8.3,5.6 L8.3,5.6 L8.3,5.6 Z M5.3,12.5 C5.1,12.6 4.9,12.7 4.8,12.8 C4.1,13.4 3.6,14.1 3.5,14.4 L3.5,14.4 C4.1,14.3 4.7,13.7 5.3,12.5 L5.3,12.5 L5.3,12.5 L5.3,12.5 Z M14.5,11 C14.4,10.9 14,10.6 12.6,10.6 L12.4,10.6 L12.4,10.6 C12.4,10.6 12.4,10.6 12.4,10.7 C13.1,11 13.8,11.2 14.3,11.2 L14.5,11.2 L14.5,11.2 L14.6,11.2 C14.6,11.2 14.6,11.2 14.6,11.1 L14.6,11.1 C14.6,11.1 14.5,11.1 14.5,11 L14.5,11 Z M16,0 L2,0 C0.9,0 0,0.9 0,2 L0,16 C0,17.1 0.9,18 2,18 L16,18 C17.1,18 18,17.1 18,16 L18,2 C18,0.9 17.1,0 16,0 L16,0 Z M14.9,11.8 C14.7,11.9 14.4,12 14,12 C13.2,12 12,11.8 11,11.3 C9.3,11.5 8,11.7 7,12.1 C6.9,12.1 6.9,12.1 6.8,12.2 C5.6,14.3 4.6,15.3 3.8,15.3 C3.6,15.3 3.5,15.3 3.4,15.2 L2.9,14.9 L2.9,14.8 C2.8,14.6 2.8,14.5 2.8,14.3 C2.9,13.8 3.5,12.9 4.7,12.2 C4.9,12.1 5.2,11.9 5.6,11.7 C5.9,11.2 6.2,10.6 6.6,9.9 C7.1,8.9 7.4,7.9 7.7,7 L7.7,7 C7.3,5.8 7.1,5.1 7.5,3.7 C7.6,3.3 7.9,2.9 8.3,2.9 L8.5,2.9 C8.7,2.9 8.9,3 9.1,3.1 C9.8,3.8 9.5,5.4 9.1,6.7 L9.1,6.8 C9.5,7.9 10.1,8.8 10.7,9.4 C11,9.6 11.2,9.8 11.6,10 C12.1,10 12.5,9.9 12.9,9.9 C14.1,9.9 14.9,10.1 15.2,10.6 C15.3,10.8 15.3,11 15.3,11.2 C15.2,11.3 15.1,11.6 14.9,11.8 L14.9,11.8 Z M8.4,7.9 C8.2,8.6 7.8,9.4 7.4,10.3 C7.2,10.7 7,11 6.8,11.4 L6.9,11.4 L7,11.4 C8.3,10.9 9.5,10.6 10.3,10.5 C10.1,10.4 10,10.3 9.9,10.2 C9.4,9.6 8.8,8.8 8.4,7.9 L8.4,7.9 Z" id="Shape"/></g></g></g></svg>