<?xml version="1.0" ?><!DOCTYPE svg  PUBLIC '-//W3C//DTD SVG 1.1//EN'  'http://www.w3.org/Graphics/SVG/1.1/DTD/svg11.dtd'><svg height="512px" style="enable-background:new 0 0 512 512;" version="1.1" viewBox="0 0 512 512" width="512px" xml:space="preserve" xmlns="http://www.w3.org/2000/svg" xmlns:xlink="http://www.w3.org/1999/xlink"><g id="_x33_81-word"><g><path d="M442.876,241.591c7.933,0,14.373-6.458,14.373-14.421c0-7.951-6.44-14.413-14.373-14.413H313.497    v-28.822h129.379c7.933,0,14.373-6.457,14.373-14.415c0-7.956-6.44-14.414-14.373-14.414H313.497V54.21    c-0.001-4.3-1.892-8.335-5.198-11.073c-3.282-2.765-7.681-3.916-11.819-3.08L66.482,83.298    c-6.788,1.266-11.731,7.233-11.731,14.151v317.103c0,6.917,4.917,12.888,11.731,14.154l229.997,43.243    c0.894,0.176,1.754,0.26,2.646,0.26c3.334,0,6.582-1.155,9.172-3.315c3.309-2.74,5.199-6.807,5.199-11.098V356.896h129.379    c7.933,0,14.373-6.456,14.373-14.409c0-7.954-6.44-14.413-14.373-14.413H313.497v-28.831h129.379    c7.933,0,14.373-6.459,14.373-14.414c0-7.96-6.44-14.414-14.373-14.414H313.497v-28.823H442.876z" style="fill:#2A5699;"/><path d="M255.917,199.933l-14.376,129.753c-0.749,6.598-5.925,11.876-12.507,12.684    c-0.605,0.084-1.181,0.113-1.782,0.113c-5.924,0-11.331-3.689-13.455-9.34l-29.674-79.331l-29.669,79.331    c-2.299,6.172-8.339,9.944-15.003,9.258c-6.529-0.696-11.762-5.771-12.68-12.315l-14.378-100.895    c-1.122-7.844,4.343-15.16,12.19-16.29c7.876-1.146,15.151,4.357,16.271,12.228l6.412,45.086l23.377-62.528    c4.194-11.244,22.711-11.244,26.937,0l22.017,58.861l7.736-69.818c0.889-7.899,8.197-13.575,15.874-12.737    C251.109,184.909,256.776,192.032,255.917,199.933z" style="fill:#FFFFFF;"/></g></g><g id="Layer_1"/></svg>